<svg width="85" height="164" viewBox="0 0 85 164" fill="none" xmlns="http://www.w3.org/2000/svg">
<path d="M83.2927 50.8369L30.7726 82.6016L8.75392 95.9572L0.933066 91.746L0.511943 66.2981L0.0908203 31.8864L52.4304 0.181824L83.2927 50.8369Z" fill="#F26869"/>
<path d="M1.17456 109.012L67.1104 144.447L56.6425 163.818L1.53552 134.099L1.17456 109.012Z" fill="#00702D"/>
<path d="M84.7967 111.659L74.2085 131.211L8.75394 95.9572L0.933086 91.746L0.511963 66.2981L30.7727 82.6016L84.7967 111.659Z" fill="#00702D"/>
<path d="M58.3863 42.8958L58.3261 38.5041L46.4143 38.6846L52.0694 28.1565L48.159 26.0509L42.5641 36.4587L36.4277 26.3517L32.6376 28.6378L38.774 38.7448L26.9224 38.9252L26.9825 43.3169L38.9544 43.1966L33.2994 53.6645L37.1496 55.7701L42.7446 45.3624L48.9411 55.4693L52.671 53.1833L46.5347 43.0763L58.3863 42.8958Z" fill="white"/>
</svg>
