<svg width="88" height="16" viewBox="0 0 88 16" fill="none" xmlns="http://www.w3.org/2000/svg">
<path fill-rule="evenodd" clip-rule="evenodd" d="M7.75 2.25C8.16421 2.25 8.5 2.58579 8.5 3V5.93934L10.7197 3.71967C11.0126 3.42678 11.4874 3.42678 11.7803 3.71967C12.0732 4.01256 12.0732 4.48744 11.7803 4.78033L9.56066 7H12.5C12.9142 7 13.25 7.33579 13.25 7.75C13.25 8.16421 12.9142 8.5 12.5 8.5H9.56066L11.7803 10.7197C12.0732 11.0126 12.0732 11.4874 11.7803 11.7803C11.4874 12.0732 11.0126 12.0732 10.7197 11.7803L8.5 9.56066V12.5C8.5 12.9142 8.16421 13.25 7.75 13.25C7.33579 13.25 7 12.9142 7 12.5V9.56066L4.78033 11.7803C4.48744 12.0732 4.01256 12.0732 3.71967 11.7803C3.42678 11.4874 3.42678 11.0126 3.71967 10.7197L5.93934 8.5H3C2.58579 8.5 2.25 8.16421 2.25 7.75C2.25 7.33579 2.58579 7 3 7H5.93934L3.71967 4.78033C3.42678 4.48744 3.42678 4.01256 3.71967 3.71967C4.01256 3.42678 4.48744 3.42678 4.78033 3.71967L7 5.93934V3C7 2.58579 7.33579 2.25 7.75 2.25Z" fill="#CE7B2E"/>
<path d="M16 10.792H21.28C22.968 10.792 23.816 10.256 23.816 9.176V9.072C23.816 8.84 23.768 8.632 23.672 8.456C23.584 8.272 23.456 8.128 23.304 8.024C23.152 7.928 23.016 7.848 22.888 7.792C22.76 7.736 22.632 7.688 22.496 7.664C22.592 7.64 22.688 7.6 22.776 7.552C22.872 7.512 22.976 7.448 23.088 7.36C23.208 7.28 23.296 7.168 23.368 7.032C23.432 6.896 23.472 6.736 23.472 6.568V6.464C23.472 6.088 23.304 5.776 22.96 5.536C22.624 5.296 22.048 5.184 21.232 5.184H16V10.792ZM17.912 6.368H20.904C21.352 6.368 21.568 6.512 21.568 6.808V6.824C21.568 7.128 21.352 7.28 20.904 7.28H17.912V6.368ZM21.072 8.472C21.576 8.472 21.824 8.64 21.824 8.992V9.016C21.824 9.168 21.768 9.296 21.664 9.4C21.552 9.512 21.352 9.568 21.072 9.568H17.912V8.472H21.072Z" fill="#CE7B2E"/>
<path d="M27.8987 8.816H30.3947C30.8587 8.816 31.1867 8.888 31.3787 9.048C31.5707 9.2 31.6667 9.448 31.6667 9.8V10.448C31.6667 10.608 31.6667 10.8 31.6667 10.8H33.5867C33.5867 10.8 33.5867 10.416 33.5867 10.08V9.256C33.5867 8.912 33.4827 8.64 33.2667 8.424C33.0507 8.208 32.7707 8.056 32.4267 7.968C33.1867 7.744 33.5627 7.336 33.5627 6.744V6.656C33.5627 5.688 32.6827 5.2 30.9147 5.2H25.9947V10.8H27.8987V8.816ZM27.8987 6.472H30.7947C31.0587 6.472 31.2507 6.52 31.3787 6.624C31.5067 6.72 31.5707 6.856 31.5707 7.016V7.024C31.5707 7.184 31.5067 7.32 31.3787 7.424C31.2507 7.52 31.0587 7.568 30.7947 7.568H27.8987V6.472Z" fill="#CE7B2E"/>
<path d="M39.936 5.104C39.4 5.104 38.92 5.136 38.48 5.208C38.048 5.272 37.68 5.36 37.384 5.472C37.096 5.584 36.84 5.72 36.624 5.88C36.4 6.04 36.232 6.2 36.104 6.36C35.984 6.52 35.888 6.696 35.816 6.888C35.736 7.08 35.688 7.256 35.672 7.4C35.648 7.552 35.64 7.704 35.64 7.872V8.096C35.64 8.256 35.648 8.416 35.672 8.568C35.688 8.712 35.736 8.888 35.816 9.08C35.888 9.272 35.984 9.448 36.104 9.616C36.232 9.776 36.4 9.936 36.624 10.104C36.848 10.264 37.104 10.4 37.392 10.52C37.68 10.632 38.048 10.72 38.48 10.792C38.92 10.864 39.4 10.896 39.936 10.896H40.192C40.728 10.896 41.208 10.864 41.64 10.792C42.08 10.72 42.44 10.632 42.728 10.52C43.016 10.4 43.272 10.264 43.496 10.104C43.72 9.936 43.888 9.776 44.008 9.616C44.128 9.448 44.224 9.272 44.304 9.08C44.376 8.888 44.432 8.712 44.448 8.568C44.472 8.416 44.48 8.256 44.48 8.096V7.872C44.48 7.704 44.472 7.552 44.448 7.4C44.432 7.248 44.376 7.08 44.304 6.888C44.224 6.696 44.128 6.52 44 6.36C43.88 6.2 43.712 6.04 43.488 5.88C43.272 5.72 43.016 5.584 42.728 5.472C42.432 5.36 42.072 5.272 41.64 5.208C41.208 5.136 40.728 5.104 40.192 5.104H39.936ZM42.48 8.032C42.48 8.208 42.448 8.384 42.376 8.544C42.312 8.704 42.192 8.864 42.024 9.016C41.856 9.176 41.6 9.304 41.256 9.392C40.96 9.48 40.6 9.52 40.192 9.536C40.128 9.536 40.032 9.536 39.992 9.536C39.552 9.528 39.168 9.48 38.848 9.392C38.504 9.296 38.256 9.168 38.088 9.008C37.928 8.848 37.808 8.688 37.744 8.528C37.672 8.368 37.64 8.192 37.64 8.016V7.928C37.64 6.976 38.416 6.488 39.96 6.456C40.008 6.456 40.152 6.456 40.224 6.464C40.536 6.472 40.816 6.496 41.064 6.552C41.36 6.616 41.6 6.696 41.776 6.792C41.952 6.88 42.096 7 42.2 7.136C42.312 7.272 42.384 7.4 42.424 7.528C42.464 7.648 42.48 7.784 42.48 7.928V8.032Z" fill="#CE7B2E"/>
<path d="M46.6481 10.8H48.4801V6.92L50.8881 10.8H51.9121L54.3121 6.92V10.8H56.2001V5.2H53.5841L51.4641 8.688L49.3601 5.2H46.6481V10.8Z" fill="#CE7B2E"/>
<path d="M62.5236 10.808C63.1076 10.808 63.6276 10.736 64.0836 10.6C64.5396 10.464 64.8996 10.288 65.1636 10.08C65.4196 9.872 65.6356 9.632 65.8036 9.36C65.9636 9.08 66.0756 8.824 66.1396 8.584C66.1956 8.352 66.2196 8.112 66.2196 7.88V5.2H64.3316V7.776C64.3316 7.976 64.3076 8.16 64.2516 8.328C64.1956 8.504 64.0916 8.672 63.9556 8.84C63.8196 9 63.6116 9.136 63.3396 9.232C63.0676 9.328 62.7396 9.376 62.3556 9.376C61.9716 9.376 61.6356 9.328 61.3556 9.232C61.0836 9.136 60.8756 9 60.7396 8.84C60.6036 8.672 60.5076 8.504 60.4516 8.328C60.3956 8.16 60.3636 7.976 60.3636 7.776V5.2H58.4756V7.88C58.4756 8.048 58.4836 8.208 58.5076 8.376C58.5316 8.536 58.5796 8.72 58.6516 8.912C58.7236 9.112 58.8196 9.296 58.9316 9.472C59.0436 9.648 59.2036 9.816 59.3956 9.984C59.5876 10.152 59.8116 10.296 60.0676 10.416C60.3236 10.536 60.6356 10.632 61.0036 10.704C61.3716 10.776 61.7796 10.808 62.2276 10.808H62.5236Z" fill="#CE7B2E"/>
<path d="M68.4813 5.2V10.8H70.3613V7.088L74.5052 10.8H76.3932V5.2H74.5052V8.72L70.6092 5.2H68.4813Z" fill="#CE7B2E"/>
<path d="M82.8601 5.104C82.3241 5.104 81.8441 5.136 81.4041 5.208C80.9721 5.272 80.6041 5.36 80.3081 5.472C80.0201 5.584 79.7641 5.72 79.5481 5.88C79.3241 6.04 79.1561 6.2 79.0281 6.36C78.9081 6.52 78.8121 6.696 78.7401 6.888C78.6601 7.08 78.6121 7.256 78.5961 7.4C78.5721 7.552 78.5641 7.704 78.5641 7.872V8.096C78.5641 8.256 78.5721 8.416 78.5961 8.568C78.6121 8.712 78.6601 8.888 78.7401 9.08C78.8121 9.272 78.9081 9.448 79.0281 9.616C79.1561 9.776 79.3241 9.936 79.5481 10.104C79.7721 10.264 80.0281 10.4 80.3161 10.52C80.6041 10.632 80.9721 10.72 81.4041 10.792C81.8441 10.864 82.3241 10.896 82.8601 10.896H83.1161C83.6521 10.896 84.1321 10.864 84.5641 10.792C85.0041 10.72 85.3641 10.632 85.6521 10.52C85.9401 10.4 86.1961 10.264 86.4201 10.104C86.6441 9.936 86.8121 9.776 86.9321 9.616C87.0521 9.448 87.1481 9.272 87.2281 9.08C87.3001 8.888 87.3561 8.712 87.3721 8.568C87.3961 8.416 87.4041 8.256 87.4041 8.096V7.872C87.4041 7.704 87.3961 7.552 87.3721 7.4C87.3561 7.248 87.3001 7.08 87.2281 6.888C87.1481 6.696 87.0521 6.52 86.9241 6.36C86.8041 6.2 86.6361 6.04 86.4121 5.88C86.1961 5.72 85.9401 5.584 85.6521 5.472C85.3561 5.36 84.9961 5.272 84.5641 5.208C84.1321 5.136 83.6521 5.104 83.1161 5.104H82.8601ZM85.4041 8.032C85.4041 8.208 85.3721 8.384 85.3001 8.544C85.2361 8.704 85.1161 8.864 84.9481 9.016C84.7801 9.176 84.5241 9.304 84.1801 9.392C83.8841 9.48 83.5241 9.52 83.1161 9.536C83.0521 9.536 82.9561 9.536 82.9161 9.536C82.4761 9.528 82.0921 9.48 81.7721 9.392C81.4281 9.296 81.1801 9.168 81.0121 9.008C80.8521 8.848 80.7321 8.688 80.6681 8.528C80.5961 8.368 80.5641 8.192 80.5641 8.016V7.928C80.5641 6.976 81.3401 6.488 82.8841 6.456C82.9321 6.456 83.0761 6.456 83.1481 6.464C83.4601 6.472 83.7401 6.496 83.9881 6.552C84.2841 6.616 84.5241 6.696 84.7001 6.792C84.8761 6.88 85.0201 7 85.1241 7.136C85.2361 7.272 85.3081 7.4 85.3481 7.528C85.3881 7.648 85.4041 7.784 85.4041 7.928V8.032Z" fill="#CE7B2E"/>
</svg>
