<svg width="24" height="24" viewBox="0 0 24 24" fill="none" xmlns="http://www.w3.org/2000/svg">
<path d="M22.1251 12.0562V12C22.1243 10.4981 21.79 9.01507 21.1464 7.65807C20.5027 6.30107 19.5658 5.10394 18.4032 4.1531L18.347 4.10622L18.2626 4.04997C16.777 2.8774 14.9923 2.14509 13.1113 1.93628C11.2303 1.72746 9.3285 2.05052 7.62195 2.86872L7.48133 2.94372C6.10201 3.63374 4.89801 4.62892 3.96073 5.85372C3.02345 7.07853 2.37751 8.50076 2.07195 10.0125C1.9384 10.6665 1.87243 11.3325 1.87508 12C1.87689 13.5692 2.24274 15.1166 2.94387 16.5205C3.645 17.9244 4.66228 19.1465 5.9157 20.0906C5.96493 20.1333 6.01832 20.171 6.07508 20.2031H6.08445C7.40422 21.1562 8.93417 21.7774 10.5448 22.014C12.1555 22.2506 13.7994 22.0957 15.3376 21.5625L15.4595 21.5156C17.3979 20.8081 19.0745 19.5263 20.2655 17.8412C21.4565 16.1561 22.1052 14.1478 22.1251 12.0843V12.0562ZM19.8001 10.875H19.5001C18.1946 10.8734 16.894 11.034 15.6282 11.3531C15.3516 10.5877 15.0162 9.84489 14.6251 9.13122C15.7559 8.41363 16.7921 7.55694 17.7095 6.58122C18.8304 7.76404 19.5603 9.26311 19.8001 10.875ZM15.9376 5.18435C15.1782 5.9629 14.3321 6.65177 13.4157 7.23747C12.5898 6.12883 11.6257 5.13014 10.547 4.2656C11.0255 4.17104 11.5123 4.12394 12.0001 4.12497C13.3834 4.12182 14.7426 4.4875 15.9376 5.18435ZM8.02508 5.21247C9.30725 6.04693 10.4442 7.08567 11.3907 8.28747C9.68491 9.00771 7.85169 9.37754 6.00008 9.37497C5.5407 9.37497 5.07195 9.34685 4.6032 9.29997C5.23534 7.5819 6.44498 6.13696 8.02508 5.21247ZM4.12508 12C4.12508 11.8406 4.13445 11.6812 4.14383 11.5218C4.76033 11.5889 5.37994 11.6233 6.00008 11.625C8.2917 11.6268 10.5575 11.1411 12.647 10.2C12.9668 10.7927 13.2456 11.4066 13.4813 12.0375C12.7873 12.3181 12.1138 12.647 11.4657 13.0218C9.48626 14.1622 7.77055 15.7086 6.43133 17.5594C5.69995 16.8301 5.11975 15.9636 4.72399 15.0096C4.32823 14.0556 4.1247 13.0328 4.12508 12ZM8.23133 18.9093C9.38764 17.3015 10.8739 15.9591 12.5907 14.9718C13.0733 14.6884 13.5744 14.4378 14.0907 14.2218C14.2548 15.0873 14.3395 15.966 14.3438 16.8468C14.3441 17.7728 14.2498 18.6963 14.0626 19.6031C13.3901 19.7845 12.6966 19.876 12.0001 19.875C10.6824 19.877 9.3857 19.5448 8.23133 18.9093ZM16.5095 18.45C16.5656 17.9174 16.5938 17.3823 16.5938 16.8468C16.5927 15.7249 16.4733 14.6062 16.2376 13.5094C17.3065 13.2552 18.4014 13.1262 19.5001 13.125H19.8001C19.6447 14.1904 19.2726 15.2126 18.7066 16.1285C18.1406 17.0444 17.3928 17.8345 16.5095 18.45Z" fill="white"/>
</svg>
